<mxfile host="app.diagrams.net" agent="Mozilla/5.0 (Windows NT 10.0; Win64; x64) AppleWebKit/537.36 (KHTML, like Gecko) Chrome/138.0.0.0 Safari/537.36 Edg/138.0.0.0" version="28.0.7">
  <diagram name="整合流程图" id="Combined-Diagram">
    <mxGraphModel dx="3036" dy="1183" grid="0" gridSize="10" guides="1" tooltips="1" connect="1" arrows="1" fold="1" page="1" pageScale="1" pageWidth="827" pageHeight="1169" math="0" shadow="0">
      <root>
        <mxCell id="0" />
        <mxCell id="1" parent="0" />
        <mxCell id="DrUWAIM6hGivZOwEgswW-20" value="" style="rounded=0;whiteSpace=wrap;html=1;labelBackgroundColor=default;strokeWidth=2;dashed=1;dashPattern=8 8;strokeColor=default;fontSize=15;" parent="1" vertex="1">
          <mxGeometry x="10" y="25" width="779" height="393" as="geometry" />
        </mxCell>
        <mxCell id="3" value="文本抽取 Text" style="rounded=1;fillColor=#fff2cc;strokeColor=#d6b656;fontSize=15;" parent="1" vertex="1">
          <mxGeometry x="140" y="45" width="120" height="40" as="geometry" />
        </mxCell>
        <mxCell id="4" value="文本分割 Chunks" style="rounded=1;fillColor=#ffe6cc;strokeColor=#d79b00;fontSize=15;" parent="1" vertex="1">
          <mxGeometry x="300" y="45" width="120" height="40" as="geometry" />
        </mxCell>
        <mxCell id="5" value="文本向量 Embedding" style="rounded=1;fillColor=#d5e8d4;strokeColor=#82b366;fontSize=15;" parent="1" vertex="1">
          <mxGeometry x="460" y="45" width="160" height="40" as="geometry" />
        </mxCell>
        <mxCell id="6" value="向量数据库" style="shape=cylinder;fillColor=#f8cecc;strokeColor=#b85450;fontSize=15;" parent="1" vertex="1">
          <mxGeometry x="643" y="35" width="80" height="60" as="geometry" />
        </mxCell>
        <mxCell id="a2" style="fontSize=15;" parent="1" source="3" target="4" edge="1">
          <mxGeometry relative="1" as="geometry" />
        </mxCell>
        <mxCell id="a3" style="fontSize=15;" parent="1" source="4" target="5" edge="1">
          <mxGeometry relative="1" as="geometry" />
        </mxCell>
        <mxCell id="a4" style="fontSize=15;" parent="1" source="5" target="6" edge="1">
          <mxGeometry relative="1" as="geometry" />
        </mxCell>
        <mxCell id="DrUWAIM6hGivZOwEgswW-51" style="edgeStyle=orthogonalEdgeStyle;rounded=0;orthogonalLoop=1;jettySize=auto;html=1;entryX=0;entryY=0.5;entryDx=0;entryDy=0;fontSize=15;" parent="1" source="7" target="DrUWAIM6hGivZOwEgswW-13" edge="1">
          <mxGeometry relative="1" as="geometry">
            <Array as="points">
              <mxPoint x="60" y="319" />
            </Array>
          </mxGeometry>
        </mxCell>
        <mxCell id="7" value="问题" style="rounded=1;fillColor=#dae8fc;strokeColor=#6c8ebf;fontSize=15;" parent="1" vertex="1">
          <mxGeometry x="20" y="189" width="80" height="40" as="geometry" />
        </mxCell>
        <mxCell id="8" value="问题向量 Embedding" style="rounded=1;fillColor=#d5e8d4;strokeColor=#82b366;fontSize=15;" parent="1" vertex="1">
          <mxGeometry x="220" y="189" width="160" height="40" as="geometry" />
        </mxCell>
        <mxCell id="9" value="相似度检索" style="rounded=1;fillColor=#ffe6cc;strokeColor=#d79b00;fontSize=15;" parent="1" vertex="1">
          <mxGeometry x="450" y="189" width="120" height="40" as="geometry" />
        </mxCell>
        <mxCell id="DrUWAIM6hGivZOwEgswW-18" style="edgeStyle=orthogonalEdgeStyle;rounded=0;orthogonalLoop=1;jettySize=auto;html=1;entryX=0.5;entryY=0;entryDx=0;entryDy=0;fontSize=15;" parent="1" source="10" target="DrUWAIM6hGivZOwEgswW-12" edge="1">
          <mxGeometry relative="1" as="geometry" />
        </mxCell>
        <mxCell id="10" value="相关段落内容 Context" style="rounded=1;fillColor=#fff2cc;strokeColor=#d6b656;fontSize=15;" parent="1" vertex="1">
          <mxGeometry x="620" y="219" width="160" height="40" as="geometry" />
        </mxCell>
        <mxCell id="a5" style="fontSize=15;" parent="1" source="7" target="8" edge="1">
          <mxGeometry relative="1" as="geometry" />
        </mxCell>
        <mxCell id="a6" style="fontSize=15;" parent="1" source="8" target="9" edge="1">
          <mxGeometry relative="1" as="geometry" />
        </mxCell>
        <mxCell id="a7" style="fontSize=15;" parent="1" source="9" target="10" edge="1">
          <mxGeometry relative="1" as="geometry" />
        </mxCell>
        <mxCell id="a8" style="fontSize=15;" parent="1" source="9" target="6" edge="1">
          <mxGeometry relative="1" as="geometry" />
        </mxCell>
        <mxCell id="11" value="LLM 大语言模型" style="rounded=1;fillColor=#f5f5f5;strokeColor=#999999;fontSize=15;" parent="1" vertex="1">
          <mxGeometry x="430" y="369" width="160" height="40" as="geometry" />
        </mxCell>
        <mxCell id="12" value="答案输出" style="rounded=1;fillColor=#e1d5e7;strokeColor=#9673a6;fontSize=15;" parent="1" vertex="1">
          <mxGeometry x="660" y="369" width="100" height="40" as="geometry" />
        </mxCell>
        <mxCell id="a10" style="fontSize=15;" parent="1" source="11" target="12" edge="1">
          <mxGeometry relative="1" as="geometry" />
        </mxCell>
        <mxCell id="DrUWAIM6hGivZOwEgswW-15" style="edgeStyle=orthogonalEdgeStyle;rounded=0;orthogonalLoop=1;jettySize=auto;html=1;entryX=1;entryY=0.5;entryDx=0;entryDy=0;fontSize=15;" parent="1" source="DrUWAIM6hGivZOwEgswW-12" target="DrUWAIM6hGivZOwEgswW-13" edge="1">
          <mxGeometry relative="1" as="geometry" />
        </mxCell>
        <mxCell id="DrUWAIM6hGivZOwEgswW-12" value="提示模板" style="ellipse;whiteSpace=wrap;html=1;fillColor=#d5e8d4;strokeColor=#82b366;fontSize=15;" parent="1" vertex="1">
          <mxGeometry x="640" y="299" width="120" height="40" as="geometry" />
        </mxCell>
        <mxCell id="DrUWAIM6hGivZOwEgswW-17" style="edgeStyle=orthogonalEdgeStyle;rounded=0;orthogonalLoop=1;jettySize=auto;html=1;entryX=0.5;entryY=0;entryDx=0;entryDy=0;fontSize=15;" parent="1" source="DrUWAIM6hGivZOwEgswW-13" target="11" edge="1">
          <mxGeometry relative="1" as="geometry" />
        </mxCell>
        <mxCell id="DrUWAIM6hGivZOwEgswW-13" value="提示词&#xa;问题+Context" style="rounded=1;fillColor=#ffe6cc;strokeColor=#d79b00;fontSize=15;" parent="1" vertex="1">
          <mxGeometry x="450" y="299" width="120" height="40" as="geometry" />
        </mxCell>
        <mxCell id="DrUWAIM6hGivZOwEgswW-40" value="" style="rounded=0;whiteSpace=wrap;html=1;fillColor=#dae8fc;strokeColor=#6c8ebf;fontSize=15;" parent="1" vertex="1">
          <mxGeometry x="26" y="35" width="39" height="56" as="geometry" />
        </mxCell>
        <mxCell id="DrUWAIM6hGivZOwEgswW-41" value="" style="rounded=0;whiteSpace=wrap;html=1;fillColor=#dae8fc;strokeColor=#6c8ebf;fontSize=15;" parent="1" vertex="1">
          <mxGeometry x="35" y="44" width="39" height="56" as="geometry" />
        </mxCell>
        <mxCell id="DrUWAIM6hGivZOwEgswW-47" style="edgeStyle=orthogonalEdgeStyle;rounded=0;orthogonalLoop=1;jettySize=auto;html=1;entryX=0;entryY=0.5;entryDx=0;entryDy=0;fontSize=15;" parent="1" source="DrUWAIM6hGivZOwEgswW-42" target="3" edge="1">
          <mxGeometry relative="1" as="geometry">
            <Array as="points">
              <mxPoint x="119" y="65" />
              <mxPoint x="119" y="65" />
            </Array>
          </mxGeometry>
        </mxCell>
        <mxCell id="DrUWAIM6hGivZOwEgswW-42" value="" style="rounded=0;whiteSpace=wrap;html=1;fillColor=#dae8fc;strokeColor=#6c8ebf;fontSize=15;" parent="1" vertex="1">
          <mxGeometry x="45" y="53" width="39" height="56" as="geometry" />
        </mxCell>
        <mxCell id="DrUWAIM6hGivZOwEgswW-43" value="" style="endArrow=none;html=1;rounded=0;fontSize=15;" parent="1" edge="1">
          <mxGeometry width="50" height="50" relative="1" as="geometry">
            <mxPoint x="48.75" y="62.799999999999955" as="sourcePoint" />
            <mxPoint x="80.25" y="62.799999999999955" as="targetPoint" />
          </mxGeometry>
        </mxCell>
        <mxCell id="DrUWAIM6hGivZOwEgswW-44" value="" style="endArrow=none;html=1;rounded=0;fontSize=15;" parent="1" edge="1">
          <mxGeometry width="50" height="50" relative="1" as="geometry">
            <mxPoint x="48.75" y="75" as="sourcePoint" />
            <mxPoint x="80.25" y="75" as="targetPoint" />
          </mxGeometry>
        </mxCell>
        <mxCell id="DrUWAIM6hGivZOwEgswW-45" value="" style="endArrow=none;html=1;rounded=0;fontSize=15;" parent="1" edge="1">
          <mxGeometry width="50" height="50" relative="1" as="geometry">
            <mxPoint x="48.5" y="85" as="sourcePoint" />
            <mxPoint x="80" y="85" as="targetPoint" />
          </mxGeometry>
        </mxCell>
        <mxCell id="DrUWAIM6hGivZOwEgswW-46" value="" style="endArrow=none;html=1;rounded=0;fontSize=15;" parent="1" edge="1">
          <mxGeometry width="50" height="50" relative="1" as="geometry">
            <mxPoint x="48.5" y="96" as="sourcePoint" />
            <mxPoint x="80" y="96" as="targetPoint" />
          </mxGeometry>
        </mxCell>
        <mxCell id="DrUWAIM6hGivZOwEgswW-50" value="文档内容" style="text;html=1;align=center;verticalAlign=middle;whiteSpace=wrap;rounded=0;fontSize=15;" parent="1" vertex="1">
          <mxGeometry x="26" y="106" width="60" height="30" as="geometry" />
        </mxCell>
        <mxCell id="Td7-_3nd8qTc9XYqAi2d-35" style="edgeStyle=orthogonalEdgeStyle;rounded=0;orthogonalLoop=1;jettySize=auto;html=1;entryX=0;entryY=0.5;entryDx=0;entryDy=0;fontSize=15;" parent="1" source="Td7-_3nd8qTc9XYqAi2d-12" target="Td7-_3nd8qTc9XYqAi2d-33" edge="1">
          <mxGeometry relative="1" as="geometry" />
        </mxCell>
        <mxCell id="Td7-_3nd8qTc9XYqAi2d-12" value="用户提问" style="rounded=0;whiteSpace=wrap;html=1;fontSize=15;" parent="1" vertex="1">
          <mxGeometry x="-275" y="685" width="120" height="60" as="geometry" />
        </mxCell>
        <mxCell id="Td7-_3nd8qTc9XYqAi2d-36" style="edgeStyle=orthogonalEdgeStyle;rounded=0;orthogonalLoop=1;jettySize=auto;html=1;entryX=0;entryY=0.5;entryDx=0;entryDy=0;fontSize=15;" parent="1" source="Td7-_3nd8qTc9XYqAi2d-14" target="Td7-_3nd8qTc9XYqAi2d-33" edge="1">
          <mxGeometry relative="1" as="geometry" />
        </mxCell>
        <mxCell id="Td7-_3nd8qTc9XYqAi2d-14" value="prompt工程" style="rounded=0;whiteSpace=wrap;html=1;fontSize=15;" parent="1" vertex="1">
          <mxGeometry x="-275" y="795" width="120" height="60" as="geometry" />
        </mxCell>
        <mxCell id="Td7-_3nd8qTc9XYqAi2d-30" style="edgeStyle=orthogonalEdgeStyle;rounded=0;orthogonalLoop=1;jettySize=auto;html=1;entryX=0;entryY=0.5;entryDx=0;entryDy=0;fontSize=15;" parent="1" source="Td7-_3nd8qTc9XYqAi2d-17" target="Td7-_3nd8qTc9XYqAi2d-27" edge="1">
          <mxGeometry relative="1" as="geometry" />
        </mxCell>
        <mxCell id="Td7-_3nd8qTc9XYqAi2d-17" value="意图识别" style="rounded=0;whiteSpace=wrap;html=1;fontSize=15;" parent="1" vertex="1">
          <mxGeometry x="115" y="729" width="120" height="60" as="geometry" />
        </mxCell>
        <mxCell id="Td7-_3nd8qTc9XYqAi2d-27" value="" style="rounded=0;whiteSpace=wrap;html=1;fillColor=none;dashed=1;dashPattern=12 12;fontSize=15;" parent="1" vertex="1">
          <mxGeometry x="295" y="519" width="210" height="480" as="geometry" />
        </mxCell>
        <mxCell id="Td7-_3nd8qTc9XYqAi2d-28" value="&lt;font style=&quot;color: rgb(0, 0, 0);&quot;&gt;熟料生产日报异常分析&lt;/font&gt;" style="rounded=0;whiteSpace=wrap;html=1;fontSize=15;" parent="1" vertex="1">
          <mxGeometry x="325" y="579" width="160" height="40" as="geometry" />
        </mxCell>
        <mxCell id="Td7-_3nd8qTc9XYqAi2d-29" value="水泥生产日报异常分析" style="rounded=0;whiteSpace=wrap;html=1;fontSize=15;" parent="1" vertex="1">
          <mxGeometry x="325" y="695" width="160" height="40" as="geometry" />
        </mxCell>
        <mxCell id="Td7-_3nd8qTc9XYqAi2d-31" style="edgeStyle=orthogonalEdgeStyle;rounded=0;orthogonalLoop=1;jettySize=auto;html=1;entryX=0;entryY=0.5;entryDx=0;entryDy=0;fontSize=15;" parent="1" source="Td7-_3nd8qTc9XYqAi2d-27" target="Td7-_3nd8qTc9XYqAi2d-43" edge="1">
          <mxGeometry relative="1" as="geometry">
            <mxPoint x="675" y="766.6300000000001" as="targetPoint" />
          </mxGeometry>
        </mxCell>
        <mxCell id="Td7-_3nd8qTc9XYqAi2d-34" value="" style="edgeStyle=orthogonalEdgeStyle;rounded=0;orthogonalLoop=1;jettySize=auto;html=1;fontSize=15;" parent="1" source="Td7-_3nd8qTc9XYqAi2d-33" target="Td7-_3nd8qTc9XYqAi2d-17" edge="1">
          <mxGeometry relative="1" as="geometry" />
        </mxCell>
        <mxCell id="Td7-_3nd8qTc9XYqAi2d-33" value="LLM" style="rounded=0;whiteSpace=wrap;html=1;fontSize=15;" parent="1" vertex="1">
          <mxGeometry x="-45" y="729" width="120" height="60" as="geometry" />
        </mxCell>
        <mxCell id="Td7-_3nd8qTc9XYqAi2d-37" value="投运率" style="rounded=0;whiteSpace=wrap;html=1;fontSize=15;" parent="1" vertex="1">
          <mxGeometry x="325" y="753" width="160" height="36" as="geometry" />
        </mxCell>
        <mxCell id="Td7-_3nd8qTc9XYqAi2d-38" value="荧光质量数据" style="rounded=0;whiteSpace=wrap;html=1;fontSize=15;" parent="1" vertex="1">
          <mxGeometry x="325" y="815" width="160" height="40" as="geometry" />
        </mxCell>
        <mxCell id="Td7-_3nd8qTc9XYqAi2d-39" value="看火电视分析数据" style="rounded=0;whiteSpace=wrap;html=1;fontSize=15;" parent="1" vertex="1">
          <mxGeometry x="325" y="869" width="160" height="40" as="geometry" />
        </mxCell>
        <mxCell id="Td7-_3nd8qTc9XYqAi2d-41" value="水泥强度数据" style="rounded=0;whiteSpace=wrap;html=1;fontSize=15;" parent="1" vertex="1">
          <mxGeometry x="325" y="929" width="160" height="40" as="geometry" />
        </mxCell>
        <mxCell id="Td7-_3nd8qTc9XYqAi2d-43" value="&lt;font&gt;智能问数&lt;/font&gt;" style="rounded=0;whiteSpace=wrap;html=1;fontSize=15;" parent="1" vertex="1">
          <mxGeometry x="655" y="729" width="120" height="60" as="geometry" />
        </mxCell>
        <mxCell id="njdPtMuvG7hpESORJNt5-1" value="&lt;font style=&quot;color: rgb(0, 0, 0);&quot;&gt;熟料生产日报&lt;/font&gt;" style="rounded=0;whiteSpace=wrap;html=1;fontSize=15;" parent="1" vertex="1">
          <mxGeometry x="325" y="529" width="160" height="40" as="geometry" />
        </mxCell>
        <mxCell id="njdPtMuvG7hpESORJNt5-2" value="水泥生产日报" style="rounded=0;whiteSpace=wrap;html=1;fontSize=15;" parent="1" vertex="1">
          <mxGeometry x="325" y="639" width="160" height="40" as="geometry" />
        </mxCell>
        <mxCell id="KywrghOH1D7kS9qc3FWC-12" style="edgeStyle=orthogonalEdgeStyle;rounded=0;orthogonalLoop=1;jettySize=auto;html=1;fontSize=15;" edge="1" parent="1" source="mBVM7sb4OEK3M4IIuq4X-1" target="DrUWAIM6hGivZOwEgswW-20">
          <mxGeometry relative="1" as="geometry" />
        </mxCell>
        <mxCell id="mBVM7sb4OEK3M4IIuq4X-1" value="相关领域模块" style="text;html=1;align=center;verticalAlign=middle;whiteSpace=wrap;rounded=0;fontSize=15;" parent="1" vertex="1">
          <mxGeometry x="352.5" y="489" width="95" height="30" as="geometry" />
        </mxCell>
        <mxCell id="KywrghOH1D7kS9qc3FWC-13" value="Rag流程" style="text;html=1;align=center;verticalAlign=middle;whiteSpace=wrap;rounded=0;fontSize=15;" vertex="1" parent="1">
          <mxGeometry x="18" y="430" width="60" height="30" as="geometry" />
        </mxCell>
      </root>
    </mxGraphModel>
  </diagram>
</mxfile>
